<?xml version="1.0" encoding="utf-8" ?><svg xmlns="http://www.w3.org/2000/svg" xmlns:xlink="http://www.w3.org/1999/xlink" width="1024" height="1024" viewBox="0 0 1024 1024"><path fill="#04346D" d="M688.015 266.985C688.274 266.723 688.532 266.462 688.791 266.2C689.712 236.102 688.506 205.913 689.297 175.82C689.76 164.247 692.868 153.277 698.639 143.245C705.88 130.657 715.497 122.374 728.356 115.978C745.247 107.446 764.868 106.095 782.769 112.231C801.095 118.441 816.176 131.72 824.656 149.112C827.776 155.619 829.78 162.605 830.585 169.777C831.65 178.964 831.773 258.894 830.075 263.833C832.387 277.632 831.858 290.424 831.859 304.338L831.843 353.179L831.767 445.424C831.698 459.841 831.904 475.713 831.395 490.051C832.328 511.457 831.726 533.897 831.797 555.414C831.819 562.416 831.954 584.329 830.504 590.396C832.379 599.694 831.917 619.473 831.935 629.512L831.958 694.115L831.981 741.568C831.985 763.15 833.535 779.5 820.928 798.467C810.49 814.269 794.206 825.28 775.654 829.082C741.641 835.875 708.581 819.759 694.761 787.588C692.099 781.389 690.718 775.792 689.218 769.233C684.281 791.1 676.192 807.545 656.449 819.871C640.119 829.876 620.51 833.062 601.852 828.742C583.09 824.39 566.906 812.235 556.667 795.967C550.796 786.639 549.054 778.324 547.073 767.653C542.924 789.323 535.084 805.598 516.221 818.454C500.283 829.111 480.756 832.978 461.959 829.198C443.646 825.646 426.975 813.182 416.427 797.978C411.019 790.182 408.15 779.141 406.609 769.892C403.722 779.816 401.869 787.897 396.264 796.877C386.173 812.986 370.133 824.463 351.628 828.814C320.365 835.886 289.09 822.898 272.567 795.632C267.039 786.511 265.548 780.402 263.236 770.187C263.219 769.533 263.388 769.351 263.082 769.096C262.791 769.32 262.74 769.831 262.661 770.162C258.484 789.14 251.91 803.575 236.146 815.688C204.42 840.067 159.028 834.368 134.968 802.642C129.075 794.982 124.874 786.16 122.641 776.757C119.122 761.962 119.684 709.108 121.839 693.291C119.14 687.073 121.012 618.804 120.861 606.302C120.823 603.163 122.098 594.462 122.852 590.924C126.698 572.865 138.435 558.126 153.849 548.31C169.088 538.605 190.165 535.132 207.72 539.2C224.479 543.083 242.88 555.907 251.782 570.758C254.904 575.966 256.768 581.089 259.65 586.304C259.726 586.42 259.802 586.535 259.878 586.651C260.857 584.957 261.098 584.282 261.849 582.445C262.872 580.778 262.606 573.337 262.919 570.376C262.554 551.226 263.68 527.449 262.733 508.811C258.654 428.479 359.068 399.994 398.074 469.578C399.904 472.843 403.108 483.222 404.696 484.86C406.334 482.475 405.686 461.448 405.686 456.945L405.804 408.928C405.829 401.916 405.58 391.841 406.296 385.043C407.059 378.327 408.699 371.741 411.175 365.452C418.11 348.521 431.469 335.027 448.329 327.922C477.664 315.591 510.238 323.464 531.058 347.518C536.926 354.297 539.803 360.648 543.183 368.775C544.193 365.779 544.186 365.1 545.779 362.364C546.372 360.367 546.067 346.861 546.056 343.71L546.23 313.677C546.218 305.958 546.27 298.115 546.204 290.409C545.953 260.91 561.546 236.563 587.746 223.447C604.433 215.293 623.643 213.971 641.289 219.763C658.747 225.711 673.25 238.144 681.795 254.489C683.445 257.631 685.355 266.094 688.015 266.985ZM262.891 701.363C263.065 696.635 263.095 691.485 262.994 686.753C262.421 659.701 263.566 632.281 262.905 605.272C261.594 623.528 263.082 645.346 262.575 663.911C262.424 669.436 263.036 679.197 262.497 684.159L262.293 684.718C261.394 687.228 262.021 688.852 259.393 686.96C260.421 689.368 260.982 691.983 261.645 694.51C261.867 696.535 262.491 699.305 262.891 701.363ZM546.21 485.333C546.215 485.418 547.285 491.062 547.247 488.863C547.036 476.617 548.391 461.556 547.078 449.487C546.708 455.859 547.327 477.398 546.76 485.159C546.751 485.284 546.371 485.313 546.21 485.333Z"/><path fill="#959280" fill-opacity="0.98039216" d="M262.497 684.159C263.036 679.197 262.424 669.436 262.575 663.911C263.082 645.346 261.594 623.528 262.905 605.272C263.566 632.281 262.421 659.701 262.994 686.753C263.095 691.485 263.065 696.635 262.891 701.363C262.491 699.305 261.867 696.535 261.645 694.51C263.448 693.919 262.583 686.109 262.497 684.159Z"/><path fill="#6A614E" fill-opacity="0.95294118" d="M547.078 449.487C548.391 461.556 547.036 476.617 547.247 488.863C547.285 491.062 546.215 485.418 546.21 485.333C546.371 485.313 546.751 485.284 546.76 485.159C547.327 477.398 546.708 455.859 547.078 449.487Z"/><path fill="#FEB90D" fill-opacity="0.98039216" d="M259.393 686.96C262.021 688.852 261.394 687.228 262.293 684.718L262.497 684.159C262.583 686.109 263.448 693.919 261.645 694.51C260.982 691.983 260.421 689.368 259.393 686.96Z"/><path fill="#FEB90D" d="M545.936 692.261L545.959 634.953C545.97 615.396 544.274 598.864 552.774 580.538C580.538 520.676 664.019 524.703 686.342 587.325L686.926 587.949C688.174 589.73 687.782 589.348 689.551 588.282C689.696 591.04 689.246 593.784 690.214 596.008C690.288 598.047 689.995 598.238 689.053 600.136C689.845 614.673 689.44 631.736 689.442 646.476L689.431 723.633L689.513 753.58C689.527 756.497 689.713 766.903 689.218 769.233C684.281 791.1 676.192 807.545 656.449 819.871C640.119 829.876 620.51 833.062 601.852 828.742C583.09 824.39 566.906 812.235 556.667 795.967C550.796 786.639 549.054 778.324 547.073 767.653C542.924 789.323 535.084 805.598 516.221 818.454C500.283 829.111 480.756 832.978 461.959 829.198C443.646 825.646 426.975 813.182 416.427 797.978C411.019 790.182 408.15 779.141 406.609 769.892C406.413 768.214 406.471 763.71 406.569 761.967C408.037 735.845 402.025 699.966 413.988 676.35C422.278 660.032 436.701 647.667 454.093 641.966C479.605 633.711 507.003 639.787 526.004 658.61C536.983 669.486 540.733 678.08 545.171 692.435L545.936 692.261Z"/><path fill="#24384E" d="M686.342 587.325L686.926 587.949C688.174 589.73 687.782 589.348 689.551 588.282C689.696 591.04 689.246 593.784 690.214 596.008C690.288 598.047 689.995 598.238 689.053 600.136C688.097 595.834 687.413 591.704 686.342 587.325Z"/><path fill="#C68F0C" d="M545.171 692.435L545.936 692.261C546.019 692.775 546.927 696.883 546.188 697.204L546.012 697.124C545.307 696.127 545.25 693.626 545.171 692.435Z"/><path fill="#04346D" d="M690.214 596.008C692.297 587.405 693.96 580.4 698.234 572.576C707.173 556.323 722.208 544.292 740.026 539.135C758.918 533.59 779.253 535.965 796.359 545.714C814.587 555.964 824.857 570.628 830.504 590.396C832.379 599.694 831.917 619.473 831.935 629.512L831.958 694.115L831.981 741.568C831.985 763.15 833.535 779.5 820.928 798.467C810.49 814.269 794.206 825.28 775.654 829.082C741.641 835.875 708.581 819.759 694.761 787.588C692.099 781.389 690.718 775.792 689.218 769.233C689.713 766.903 689.527 756.497 689.513 753.58L689.431 723.633L689.442 646.476C689.44 631.736 689.845 614.673 689.053 600.136C689.995 598.238 690.288 598.047 690.214 596.008Z"/><path fill="#FEB90D" d="M262.919 570.376C262.554 551.226 263.68 527.449 262.733 508.811C258.654 428.479 359.068 399.994 398.074 469.578C399.904 472.843 403.108 483.222 404.696 484.86C406.334 482.475 405.686 461.448 405.686 456.945L405.804 408.928C405.829 401.916 405.58 391.841 406.296 385.043C407.059 378.327 408.699 371.741 411.175 365.452C418.11 348.521 431.469 335.027 448.329 327.922C477.664 315.591 510.238 323.464 531.058 347.518C536.926 354.297 539.803 360.648 543.183 368.775L543.452 369.618C543.922 371.009 544.226 372.426 544.493 373.869L545.989 374.148C546.024 374.854 546.055 375.56 546.08 376.266L546.395 377.105C546.748 378.108 547.071 378.46 547.829 379.209C547.711 380.348 547.49 381.511 547.35 382.689C546.699 391.373 546.929 401.259 546.952 410.06L547.078 449.487C546.708 455.859 547.327 477.398 546.76 485.159C546.751 485.284 546.371 485.313 546.21 485.333C541.211 465.712 530.587 449.784 512.988 439.292C496.801 429.448 477.337 426.52 458.97 431.166C440.495 435.965 423.611 448.103 414.035 464.705C409.99 471.823 407.327 479.641 406.185 487.748C405.132 494.886 405.528 509.235 405.525 517.04L405.533 568.148C405.539 572.684 405.833 584.491 405.312 588.393L403.515 588.667L403.326 588.018C397.731 569.241 385.563 553.487 368.196 544.224C350.944 535.145 330.787 533.309 312.178 539.121C294.24 544.672 279.421 556.402 270.668 573.141C268.235 577.752 266.33 582.623 264.989 587.661L263.441 593.72C261.016 589.506 264.28 585.914 261.849 582.445C262.872 580.778 262.606 573.337 262.919 570.376Z"/><path fill="#FFED82" d="M546.08 376.266L546.395 377.105C546.748 378.108 547.071 378.46 547.829 379.209C547.711 380.348 547.49 381.511 547.35 382.689C546.184 380.459 545.745 378.908 545.017 376.504L546.08 376.266Z"/><path fill="#FEFDDF" d="M545.989 374.148C546.024 374.854 546.055 375.56 546.08 376.266L545.017 376.504C544.863 375.622 544.689 374.743 544.493 373.869L545.989 374.148Z"/><path fill="#FEB90D" d="M689.551 588.282C689.236 563.578 689.808 538.744 689.586 514.028C689.523 507.105 689.432 499.611 690.177 492.75C690.817 486.859 692.268 481.085 694.487 475.592C701.509 458.025 715.173 443.935 732.515 436.375C750.094 428.781 769.997 428.623 787.694 435.938C804.239 442.651 819.39 456.136 826.138 472.955C828.279 478.289 829.28 485.396 831.395 490.051C832.328 511.457 831.726 533.897 831.797 555.414C831.819 562.416 831.954 584.329 830.504 590.396C824.857 570.628 814.587 555.964 796.359 545.714C779.253 535.965 758.918 533.59 740.026 539.135C722.208 544.292 707.173 556.323 698.234 572.576C693.96 580.4 692.297 587.405 690.214 596.008C689.246 593.784 689.696 591.04 689.551 588.282Z"/><path fill="#FEB90D" d="M545.779 362.364C546.372 360.367 546.067 346.861 546.056 343.71L546.23 313.677C546.218 305.958 546.27 298.115 546.204 290.409C545.953 260.91 561.546 236.563 587.746 223.447C604.433 215.293 623.643 213.971 641.289 219.763C658.747 225.711 673.25 238.144 681.795 254.489C683.445 257.631 685.355 266.094 688.015 266.985C689.407 268.919 688.865 270.536 689.717 272.954C689.511 274.932 689.45 276.732 689.357 278.71L689.418 350.397C689.422 353.827 689.68 377.282 689.2 379.744C688.27 378.273 688.456 375.165 687.853 373.255C679.771 347.662 661.741 328.635 634.739 322.568C615.668 318.395 595.722 321.854 579.17 332.206C560.524 344.119 553.49 359.082 547.829 379.209C547.071 378.46 546.748 378.108 546.395 377.105L546.08 376.266C546.055 375.56 546.024 374.854 545.989 374.148L544.493 373.869C544.226 372.426 543.922 371.009 543.452 369.618L543.183 368.775C544.193 365.779 544.186 365.1 545.779 362.364Z"/><path fill="#FEFFFE" d="M545.779 362.364C546.322 365.694 546.087 370.679 545.989 374.148L544.493 373.869C544.226 372.426 543.922 371.009 543.452 369.618L543.183 368.775C544.193 365.779 544.186 365.1 545.779 362.364Z"/><path fill="#FEFDDF" d="M689.357 278.71C688.633 277.582 686.336 268.051 686.47 267.368C686.873 267.079 687.563 267.055 688.015 266.985C689.407 268.919 688.865 270.536 689.717 272.954C689.511 274.932 689.45 276.732 689.357 278.71Z"/><path fill="#FEB90D" d="M688.015 266.985C688.274 266.723 688.532 266.462 688.791 266.2C689.712 236.102 688.506 205.913 689.297 175.82C689.76 164.247 692.868 153.277 698.639 143.245C705.88 130.657 715.497 122.374 728.356 115.978C745.247 107.446 764.868 106.095 782.769 112.231C801.095 118.441 816.176 131.72 824.656 149.112C827.776 155.619 829.78 162.605 830.585 169.777C831.65 178.964 831.773 258.894 830.075 263.833C823.539 244.106 813.129 229.808 794.057 220.291C776.26 211.442 755.657 210.102 736.863 216.572C719.105 222.621 704.537 235.576 696.452 252.505C693.024 259.567 691.561 265.444 689.717 272.954C688.865 270.536 689.407 268.919 688.015 266.985Z"/><path fill="#FEB90D" d="M121.839 693.291C119.14 687.073 121.012 618.804 120.861 606.302C120.823 603.163 122.098 594.462 122.852 590.924C126.698 572.865 138.435 558.126 153.849 548.31C169.088 538.605 190.165 535.132 207.72 539.2C224.479 543.083 242.88 555.907 251.782 570.758C254.904 575.966 256.768 581.089 259.65 586.304C259.726 586.42 259.802 586.535 259.878 586.651C260.857 584.957 261.098 584.282 261.849 582.445C264.28 585.914 261.016 589.506 263.441 593.72C263.453 595.773 263.029 597.691 262.9 599.839L262.905 605.272C261.594 623.528 263.082 645.346 262.575 663.911C262.424 669.436 263.036 679.197 262.497 684.159L262.293 684.718C261.394 687.228 262.021 688.852 259.393 686.96C252.28 668.412 238.87 653.45 220.592 645.388C202.997 637.693 183.078 637.246 165.156 644.145C147.551 651.012 133.447 664.669 126.017 682.043C124.516 685.542 123.127 689.653 121.839 693.291Z"/><path fill="#FEFDDF" d="M261.849 582.445C264.28 585.914 261.016 589.506 263.441 593.72C263.453 595.773 263.029 597.691 262.9 599.839C262.237 597.82 258.938 588.167 259.878 586.651C260.857 584.957 261.098 584.282 261.849 582.445Z"/><path fill="#9BA7C1" fill-opacity="0.13333334" d="M262.661 770.162C262.74 769.831 262.791 769.32 263.082 769.096C263.388 769.351 263.219 769.533 263.236 770.187L262.661 770.162Z"/></svg>